<svg width="495" height="55" viewBox="0 0 495 55" fill="none" xmlns="http://www.w3.org/2000/svg">
<path d="M33.16 53.2H33.56C34.84 53.2 35.48 52.6133 35.48 51.44C35.48 51.0133 35.4 50.56 35.24 50.08L28.04 30.64H14.04L7.08 49.76C6.92 50.1867 6.84 50.5867 6.84 50.96C6.84 51.6533 7.02667 52.2133 7.4 52.64C7.77333 53.0133 8.17333 53.2 8.6 53.2H9V54H0.12V53.2H0.52C1.21333 53.2 1.88 52.8 2.52 52C3.21333 51.1467 3.77333 50.16 4.2 49.04L22.52 0.239996L40.44 48.56C40.8133 49.6267 41.32 50.6667 41.96 51.68C42.6533 52.6933 43.5333 53.2 44.6 53.2H45V54H33.16V53.2ZM14.84 27.92H27.16L21 11.2L14.84 27.92ZM65.6675 53.2H66.0675V54H54.7875V53.2H55.1875C55.5608 53.2 55.9075 53.04 56.2275 52.72C56.5475 52.4 56.8142 52.0267 57.0275 51.6C57.2942 51.1733 57.4808 50.72 57.5875 50.24C57.6942 49.7067 57.7475 49.2267 57.7475 48.8V6.16C57.7475 5.78666 57.6942 5.36 57.5875 4.88C57.4808 4.4 57.2942 3.94666 57.0275 3.52C56.8142 3.09333 56.5475 2.74666 56.2275 2.48C55.9075 2.16 55.5608 2 55.1875 2H54.7875V1.2H68.7075C74.0408 1.2 78.1475 2.24 81.0275 4.32C83.9608 6.4 85.4275 9.46666 85.4275 13.52C85.4275 15.5467 85.0808 17.3333 84.3875 18.88C83.7475 20.3733 82.8675 21.68 81.7475 22.8C80.6275 23.8667 79.2942 24.7467 77.7475 25.44C76.2542 26.08 74.6542 26.56 72.9475 26.88L78.7075 35.68C80.0942 37.8133 81.5075 39.92 82.9475 42C84.3875 44.0267 85.8008 46.1333 87.1875 48.32C87.5608 48.8533 87.9608 49.4133 88.3875 50C88.8675 50.5867 89.3475 51.12 89.8275 51.6C90.3608 52.08 90.8942 52.48 91.4275 52.8C92.0142 53.0667 92.6008 53.2 93.1875 53.2V54H89.7475C87.6142 54 85.8542 53.4933 84.4675 52.48C83.1342 51.4133 82.0142 50.1867 81.1075 48.8C78.7075 45.28 76.3075 41.7067 73.9075 38.08C71.5608 34.4533 69.2142 30.88 66.8675 27.36C66.2808 27.3067 65.6408 27.2533 64.9475 27.2C64.3075 27.0933 63.6942 26.9867 63.1075 26.88V48.8C63.1075 49.2267 63.1608 49.7067 63.2675 50.24C63.3742 50.72 63.5342 51.1733 63.7475 51.6C64.0142 52.0267 64.2808 52.4 64.5475 52.72C64.8675 53.04 65.2408 53.2 65.6675 53.2ZM63.1075 3.92V24.24H63.5075C63.9342 24.2933 64.6008 24.3467 65.5075 24.4C66.4675 24.4 67.6408 24.4 69.0275 24.4C70.1475 24.4 71.3208 24.24 72.5475 23.92C73.8275 23.5467 75.0008 22.96 76.0675 22.16C77.1875 21.3067 78.0942 20.2133 78.7875 18.88C79.5342 17.5467 79.9075 15.8667 79.9075 13.84C79.9075 11.8133 79.5075 10.16 78.7075 8.88C77.9608 7.6 76.8942 6.58667 75.5075 5.84C74.1742 5.09333 72.5475 4.58666 70.6275 4.32C68.7075 4.05333 66.6008 3.92 64.3075 3.92H63.1075ZM123.231 53.2H123.631V54H112.271V53.2H112.671C113.097 53.2 113.471 53.04 113.791 52.72C114.111 52.4 114.377 52.0267 114.591 51.6C114.857 51.1733 115.044 50.72 115.151 50.24C115.257 49.7067 115.311 49.2267 115.311 48.8V4.16H106.031C105.177 4.16 104.431 4.34666 103.791 4.72C103.151 5.09333 102.617 5.57333 102.191 6.16C101.764 6.69333 101.444 7.30667 101.231 8C101.017 8.64 100.911 9.28 100.911 9.92H100.111V1.2H136.031V9.92H135.231C135.231 9.28 135.124 8.64 134.911 8C134.697 7.30667 134.377 6.69333 133.951 6.16C133.524 5.57333 132.991 5.09333 132.351 4.72C131.711 4.34666 130.964 4.16 130.111 4.16H120.671V48.8C120.671 49.2267 120.724 49.7067 120.831 50.24C120.937 50.72 121.097 51.1733 121.311 51.6C121.577 52.0267 121.844 52.4 122.111 52.72C122.431 53.04 122.804 53.2 123.231 53.2ZM205.594 26.16H217.034V26.96H216.634C216.207 26.96 215.834 27.12 215.514 27.44C215.194 27.7067 214.927 28.0533 214.714 28.48C214.5 28.9067 214.314 29.36 214.154 29.84C214.047 30.32 213.994 30.7467 213.994 31.12V52.56C213.034 52.9333 211.94 53.2533 210.714 53.52C209.487 53.7867 208.207 54 206.874 54.16C205.54 54.3733 204.18 54.5333 202.794 54.64C201.407 54.7467 200.127 54.8 198.954 54.8C194.154 54.8 189.967 54 186.394 52.4C182.82 50.8 179.86 48.72 177.514 46.16C175.167 43.5467 173.407 40.6133 172.234 37.36C171.114 34.1067 170.554 30.8267 170.554 27.52C170.554 24.2133 171.114 20.9333 172.234 17.68C173.407 14.4267 175.167 11.52 177.514 8.96C179.914 6.4 182.9 4.34667 186.474 2.8C190.1 1.2 194.394 0.399999 199.354 0.399999C201.22 0.399999 202.954 0.559998 204.554 0.879997C206.154 1.2 207.567 1.49333 208.794 1.76C209.487 1.92 210.074 2.08 210.554 2.24C211.087 2.34666 211.54 2.4 211.914 2.4H212.634V10.88H211.834C211.514 9.22666 210.874 7.89333 209.914 6.88C209.007 5.86666 207.94 5.09333 206.714 4.56C205.487 4.02666 204.18 3.68 202.794 3.52C201.46 3.30666 200.207 3.2 199.034 3.2C195.034 3.2 191.567 3.92 188.634 5.36C185.7 6.74666 183.3 8.56 181.434 10.8C179.567 13.04 178.18 15.5733 177.274 18.4C176.367 21.1733 175.914 23.9467 175.914 26.72C175.914 29.8133 176.5 32.88 177.674 35.92C178.847 38.9067 180.5 41.6 182.634 44C184.767 46.3467 187.327 48.2667 190.314 49.76C193.354 51.2 196.714 51.92 200.394 51.92C201.407 51.92 202.66 51.8133 204.154 51.6C205.647 51.3333 207.14 50.7733 208.634 49.92V31.12C208.634 30.7467 208.58 30.32 208.474 29.84C208.367 29.36 208.18 28.9067 207.914 28.48C207.7 28.0533 207.434 27.7067 207.114 27.44C206.794 27.12 206.42 26.96 205.994 26.96H205.594V26.16ZM259.332 53.2H259.732C261.012 53.2 261.652 52.6133 261.652 51.44C261.652 51.0133 261.572 50.56 261.412 50.08L254.212 30.64H240.212L233.252 49.76C233.092 50.1867 233.012 50.5867 233.012 50.96C233.012 51.6533 233.199 52.2133 233.572 52.64C233.945 53.0133 234.345 53.2 234.772 53.2H235.172V54H226.292V53.2H226.692C227.385 53.2 228.052 52.8 228.692 52C229.385 51.1467 229.945 50.16 230.372 49.04L248.692 0.239996L266.612 48.56C266.985 49.6267 267.492 50.6667 268.132 51.68C268.825 52.6933 269.705 53.2 270.772 53.2H271.172V54H259.332V53.2ZM241.012 27.92H253.332L247.172 11.2L241.012 27.92ZM280.959 53.2H281.359C281.786 53.2 282.159 53.0667 282.479 52.8C282.799 52.48 283.066 52.1067 283.279 51.68C283.546 51.2533 283.733 50.8 283.839 50.32C283.999 49.84 284.079 49.3867 284.079 48.96V6.16C284.079 5.78666 283.999 5.36 283.839 4.88C283.733 4.4 283.546 3.94666 283.279 3.52C283.066 3.09333 282.799 2.74666 282.479 2.48C282.159 2.16 281.786 2 281.359 2H280.959V1.2H292.479V2H292.079C291.653 2 291.279 2.16 290.959 2.48C290.639 2.74666 290.373 3.09333 290.159 3.52C289.946 3.94666 289.759 4.4 289.599 4.88C289.493 5.36 289.439 5.78666 289.439 6.16V51.04H306.959C307.973 51.04 308.853 50.8 309.599 50.32C310.346 49.84 310.959 49.2533 311.439 48.56C311.973 47.8133 312.346 47.04 312.559 46.24C312.826 45.3867 312.959 44.6133 312.959 43.92H313.759V54H280.959V53.2ZM323.147 53.2H323.547C323.974 53.2 324.347 53.0667 324.667 52.8C324.987 52.48 325.254 52.1067 325.467 51.68C325.734 51.2533 325.92 50.8 326.027 50.32C326.187 49.84 326.267 49.3867 326.267 48.96V6.16C326.267 5.78666 326.187 5.36 326.027 4.88C325.92 4.4 325.734 3.94666 325.467 3.52C325.254 3.09333 324.987 2.74666 324.667 2.48C324.347 2.16 323.974 2 323.547 2H323.147V1.2H334.667V2H334.267C333.84 2 333.467 2.16 333.147 2.48C332.827 2.74666 332.56 3.09333 332.347 3.52C332.134 3.94666 331.947 4.4 331.787 4.88C331.68 5.36 331.627 5.78666 331.627 6.16V51.04H349.147C350.16 51.04 351.04 50.8 351.787 50.32C352.534 49.84 353.147 49.2533 353.627 48.56C354.16 47.8133 354.534 47.04 354.747 46.24C355.014 45.3867 355.147 44.6133 355.147 43.92H355.947V54H323.147V53.2ZM365.334 53.2H365.734C366.161 53.2 366.534 53.0667 366.854 52.8C367.174 52.48 367.441 52.1067 367.654 51.68C367.921 51.2533 368.108 50.8 368.214 50.32C368.374 49.84 368.454 49.3867 368.454 48.96V6.16C368.454 5.78666 368.374 5.36 368.214 4.88C368.108 4.4 367.921 3.94666 367.654 3.52C367.441 3.09333 367.174 2.74666 366.854 2.48C366.534 2.16 366.161 2 365.734 2H365.334V1.2H396.134V8.64H395.334C395.228 7.41333 394.748 6.34666 393.894 5.44C393.041 4.48 391.708 4 389.894 4H373.814V24.24H387.094C388.321 24.24 389.334 23.8667 390.134 23.12C390.988 22.3733 391.414 21.4933 391.414 20.48H392.214V30.48H391.414C391.414 29.52 391.014 28.6933 390.214 28C389.414 27.3067 388.374 26.96 387.094 26.96H373.814V51.2H391.334C392.348 51.2 393.228 50.96 393.974 50.48C394.721 50 395.334 49.44 395.814 48.8C396.348 48.1067 396.721 47.3867 396.934 46.64C397.201 45.84 397.334 45.1733 397.334 44.64H398.134V54H365.334V53.2ZM420.043 53.2H420.443V54H409.163V53.2H409.563C409.936 53.2 410.283 53.04 410.603 52.72C410.923 52.4 411.189 52.0267 411.403 51.6C411.669 51.1733 411.856 50.72 411.963 50.24C412.069 49.7067 412.123 49.2267 412.123 48.8V6.16C412.123 5.78666 412.069 5.36 411.963 4.88C411.856 4.4 411.669 3.94666 411.403 3.52C411.189 3.09333 410.923 2.74666 410.603 2.48C410.283 2.16 409.936 2 409.563 2H409.163V1.2H423.083C428.416 1.2 432.523 2.24 435.403 4.32C438.336 6.4 439.803 9.46666 439.803 13.52C439.803 15.5467 439.456 17.3333 438.763 18.88C438.123 20.3733 437.243 21.68 436.123 22.8C435.003 23.8667 433.669 24.7467 432.123 25.44C430.629 26.08 429.029 26.56 427.323 26.88L433.083 35.68C434.469 37.8133 435.883 39.92 437.323 42C438.763 44.0267 440.176 46.1333 441.563 48.32C441.936 48.8533 442.336 49.4133 442.763 50C443.243 50.5867 443.723 51.12 444.203 51.6C444.736 52.08 445.269 52.48 445.803 52.8C446.389 53.0667 446.976 53.2 447.563 53.2V54H444.123C441.989 54 440.229 53.4933 438.843 52.48C437.509 51.4133 436.389 50.1867 435.483 48.8C433.083 45.28 430.683 41.7067 428.283 38.08C425.936 34.4533 423.589 30.88 421.243 27.36C420.656 27.3067 420.016 27.2533 419.323 27.2C418.683 27.0933 418.069 26.9867 417.483 26.88V48.8C417.483 49.2267 417.536 49.7067 417.643 50.24C417.749 50.72 417.909 51.1733 418.123 51.6C418.389 52.0267 418.656 52.4 418.923 52.72C419.243 53.04 419.616 53.2 420.043 53.2ZM417.483 3.92V24.24H417.883C418.309 24.2933 418.976 24.3467 419.883 24.4C420.843 24.4 422.016 24.4 423.403 24.4C424.523 24.4 425.696 24.24 426.923 23.92C428.203 23.5467 429.376 22.96 430.443 22.16C431.563 21.3067 432.469 20.2133 433.163 18.88C433.909 17.5467 434.283 15.8667 434.283 13.84C434.283 11.8133 433.883 10.16 433.083 8.88C432.336 7.6 431.269 6.58667 429.883 5.84C428.549 5.09333 426.923 4.58666 425.003 4.32C423.083 4.05333 420.976 3.92 418.683 3.92H417.483ZM454.006 1.2H465.046V2C464.672 2.05333 464.326 2.21333 464.006 2.48C463.686 2.74666 463.526 3.14666 463.526 3.68C463.526 3.94667 463.606 4.24 463.766 4.56L475.766 25.6L487.286 5.68C487.499 5.25333 487.632 4.93333 487.686 4.72C487.792 4.50666 487.846 4.24 487.846 3.92C487.739 3.06666 487.419 2.53333 486.886 2.32C486.406 2.10666 486.112 2 486.006 2V1.2H494.566V2C493.766 2 492.939 2.50666 492.086 3.52C491.286 4.48 490.592 5.46666 490.006 6.48L477.526 28.08V48.8C477.526 49.2267 477.579 49.68 477.686 50.16C477.846 50.64 478.032 51.12 478.246 51.6C478.459 52.0267 478.726 52.4 479.046 52.72C479.366 53.04 479.739 53.2 480.166 53.2H480.566V54H469.126V53.2H469.526C469.952 53.2 470.326 53.0667 470.646 52.8C470.966 52.48 471.232 52.1067 471.446 51.68C471.712 51.2 471.899 50.72 472.006 50.24C472.112 49.7067 472.166 49.2267 472.166 48.8V28.8L459.286 6.72C459.019 6.29333 458.699 5.81333 458.326 5.28C457.952 4.74667 457.552 4.24 457.126 3.76C456.699 3.28 456.246 2.88 455.766 2.56C455.286 2.18666 454.832 2 454.406 2H454.006V1.2Z" fill="white"/>
</svg>
